<svg style="display: none;" xmlns="http://www.w3.org/2000/svg">
  <symbol id="phone" width="18" height="18" viewBox="0 0 12 12" fill="none" xmlns="http://www.w3.org/2000/svg">
    <path d="M11.2481 12C4.8494 12.0091 -0.00683822 7.09462 7.22807e-06 0.751882C7.22807e-06 0.337669 0.335794 0 0.750007 0H2.72953C3.1012 0 3.41695 0.273097 3.47153 0.640747C3.60233 1.5219 3.85888 2.37973 4.23336 3.18803L4.31043 3.35438C4.4176 3.58568 4.34496 3.86051 4.13751 4.00865C3.52447 4.44644 3.29019 5.32767 3.76777 6.01527C4.36708 6.87813 5.12254 7.63343 5.9852 8.23246C6.67277 8.70991 7.55385 8.47566 7.99163 7.86273C8.13988 7.65517 8.41486 7.5825 8.6463 7.68971L8.81189 7.76642C9.62024 8.14087 10.4781 8.39743 11.3594 8.52822C11.727 8.58278 12 8.89851 12 9.2702V11.25C12 11.6642 11.6634 12 11.2492 12L11.2481 12Z" fill="white" />
  </symbol>
  <symbol id="arrow" width="18" height="18" viewBox="0 0 8 6" fill="none" xmlns="http://www.w3.org/2000/svg">
    <path d="M4 0L7.4641 6L0.535898 6L4 0Z" fill="white" />
  </symbol>
  <symbol id="location"                       width="12"
                      height="14"
                      viewBox="0 0 12 14"
                      fill="none"
                      xmlns="http://www.w3.org/2000/svg"
>
    <path d="M6 13.7499C5.0527 12.9418 4.17464 12.056 3.375 11.1016C2.175 9.66836 0.750001 7.53385 0.750001 5.49985C0.748937 3.37551 2.02819 1.4599 3.9908 0.646903C5.95342 -0.166092 8.21255 0.283785 9.714 1.7866C10.7013 2.76956 11.2544 4.10665 11.25 5.49985C11.25 7.53385 9.825 9.66836 8.625 11.1016C7.82536 12.056 6.9473 12.9418 6 13.7499ZM6 3.24985C5.19615 3.24985 4.45337 3.6787 4.05144 4.37485C3.64952 5.07101 3.64952 5.9287 4.05144 6.62486C4.45337 7.32101 5.19615 7.74986 6 7.74986C7.24264 7.74986 8.25 6.7425 8.25 5.49985C8.25 4.25721 7.24264 3.24985 6 3.24985Z" fill="white" />
  </symbol>
  <symbol id="clock" width="18" height="18" viewBox="0 0 16 16" fill="none" xmlns="http://www.w3.org/2000/svg">
    <path d="M8 15.5C3.85786 15.5 0.5 12.1421 0.5 8C0.5 3.85786 3.85786 0.5 8 0.5C12.1421 0.5 15.5 3.85786 15.5 8C15.4955 12.1403 12.1403 15.4955 8 15.5ZM8 2C4.68629 2 2 4.68629 2 8C2 11.3137 4.68629 14 8 14C11.3137 14 14 11.3137 14 8C13.9963 4.68783 11.3122 2.00372 8 2ZM11.75 8.75H7.25V4.25H8.75V7.25H11.75V8.75Z" fill="white" />
  </symbol>
  <symbol id="mail" width="18" height="18" viewBox="0 0 18 18" fill="none" xmlns="http://www.w3.org/2000/svg">
    <path d="M15 15H3C2.17157 15 1.5 14.3284 1.5 13.5V4.43475C1.53496 3.63191 2.1964 2.99924 3 3H15C15.8284 3 16.5 3.67157 16.5 4.5V13.5C16.5 14.3284 15.8284 15 15 15ZM3 5.901V13.5H15V5.901L9 9.9L3 5.901ZM3.6 4.5L9 8.1L14.4 4.5H3.6Z" fill="white" />
  </symbol>
  <symbol id="protected"></symbol>
  <symbol id="auction"></symbol>
  <symbol id="legal-document"></symbol>
  <symbol id="facebook" viewBox="0 0 7 14">
    <path d="M1.78694 14V7.43079H0V5.06556H1.78694V3.04535C1.78694 1.45785 2.84249 0 5.27471 0C6.25947 0 6.98766 0.09177 6.98766 0.09177L6.93028 2.30049C6.93028 2.30049 6.18765 2.29347 5.37725 2.29347C4.50015 2.29347 4.35963 2.68638 4.35963 3.33851V5.06556H7L6.88512 7.43079H4.35963V14H1.78694Z" fill="white" />
  </symbol>
  <symbol id="twitter" viewBox="0 0 18 14">
    <path d="M18 1.70441C17.326 1.98888 16.611 2.17561 15.879 2.25838C16.6415 1.82297 17.227 1.13349 17.5027 0.311979C16.7778 0.721787 15.9847 1.01052 15.1577 1.16571C14.484 0.481989 13.5243 0.0546875 12.4621 0.0546875C10.4226 0.0546875 8.76909 1.62992 8.76909 3.57277C8.76909 3.84855 8.80179 4.11703 8.86472 4.37459C5.79558 4.22782 3.07448 2.82722 1.25304 0.698687C0.935227 1.21829 0.753117 1.82271 0.753117 2.46738C0.753117 3.68799 1.40513 4.76478 2.39597 5.39572C1.80953 5.37822 1.23599 5.22732 0.723234 4.95562C0.723023 4.97036 0.723023 4.9851 0.723023 4.9999C0.723023 6.70448 1.99596 8.12645 3.68529 8.44966C3.14148 8.59056 2.57107 8.61118 2.01762 8.50995C2.48752 9.90767 3.85137 10.9248 5.46729 10.9532C4.20342 11.8968 2.61105 12.4593 0.880945 12.4593C0.58282 12.4593 0.288914 12.4426 0 12.4101C1.63427 13.4083 3.57539 13.9908 5.66086 13.9908C12.4535 13.9908 16.1679 8.62985 16.1679 3.98078C16.1679 3.82819 16.1644 3.67647 16.1573 3.52561C16.8802 3.0277 17.5042 2.41098 18 1.70441Z" fill="white" />
  </symbol>
  <symbol id="linkedin" viewBox="0 0 16 15" >
    <path d="M3.63269 15V4.87953H0.202386V15H3.63269ZM1.91798 3.49692C3.11419 3.49692 3.85877 2.71978 3.85877 1.74862C3.83648 0.755565 3.11423 0 1.94068 0C0.767312 0 0 0.75558 0 1.74862C0 2.71983 0.744398 3.49692 1.89559 3.49692H1.91787H1.91798ZM5.53135 15H8.96165V9.34824C8.96165 9.04576 8.98394 8.7436 9.07452 8.52738C9.32251 7.92304 9.88693 7.29712 10.8345 7.29712C12.0758 7.29712 12.5724 8.2252 12.5724 9.5857V14.9999H16.0025V9.19695C16.0025 6.08834 14.3101 4.64193 12.0532 4.64193C10.2027 4.64193 9.39021 5.65626 8.93883 6.34712H8.96173V4.87932H5.53143C5.57644 5.82897 5.53143 14.9998 5.53143 14.9998L5.53135 15Z" fill="white" />
  </symbol>
</svg>

