<svg style="display: none;" xmlns="http://www.w3.org/2000/svg">
  <symbol id="phone" width="18" height="18" viewBox="0 0 18 18" fill="none" xmlns="http://www.w3.org/2000/svg">
    <path d="M14.2481 15C7.8494 15.0091 2.99316 10.0946 3.00001 3.75188C3.00001 3.33767 3.33579 3 3.75001 3H5.72953C6.1012 3 6.41695 3.2731 6.47153 3.64075C6.60233 4.5219 6.85888 5.37973 7.23336 6.18803L7.31043 6.35438C7.4176 6.58568 7.34496 6.86051 7.13751 7.00865C6.52447 7.44644 6.29019 8.32767 6.76777 9.01527C7.36708 9.87813 8.12254 10.6334 8.9852 11.2325C9.67277 11.7099 10.5538 11.4757 10.9916 10.8627C11.1399 10.6552 11.4149 10.5825 11.6463 10.6897L11.8119 10.7664C12.6202 11.1409 13.4781 11.3974 14.3594 11.5282C14.727 11.5828 15 11.8985 15 12.2702V14.25C15 14.6642 14.6634 15 14.2492 15L14.2481 15Z" fill="white" />
  </symbol>
  <symbol id="arrow" width="8" height="6" viewBox="0 0 8 6" fill="none" xmlns="http://www.w3.org/2000/svg">
    <path fill="#fff" d="M4 6L0.535898 -1.75695e-07L7.4641 4.29987e-07L4 6Z" />
  </symbol>
  <symbol id="location"                       width="11"
                      height="14"
                      viewBox="0 0 12 14"
                      fill="none"
                      xmlns="http://www.w3.org/2000/svg"
>
    <path d="M6 13.7499C5.0527 12.9418 4.17464 12.056 3.375 11.1016C2.175 9.66836 0.750001 7.53385 0.750001 5.49985C0.748937 3.37551 2.02819 1.4599 3.9908 0.646903C5.95342 -0.166092 8.21255 0.283785 9.714 1.7866C10.7013 2.76956 11.2544 4.10665 11.25 5.49985C11.25 7.53385 9.825 9.66836 8.625 11.1016C7.82536 12.056 6.9473 12.9418 6 13.7499ZM6 3.24985C5.19615 3.24985 4.45337 3.6787 4.05144 4.37485C3.64952 5.07101 3.64952 5.9287 4.05144 6.62486C4.45337 7.32101 5.19615 7.74986 6 7.74986C7.24264 7.74986 8.25 6.7425 8.25 5.49985C8.25 4.25721 7.24264 3.24985 6 3.24985Z" fill="white" />
  </symbol>
  <symbol id="clock" width="16" height="16" viewBox="0 0 16 16" fill="none" xmlns="http://www.w3.org/2000/svg">
    <path d="M8 15.5C3.85786 15.5 0.5 12.1421 0.5 8C0.5 3.85786 3.85786 0.5 8 0.5C12.1421 0.5 15.5 3.85786 15.5 8C15.4955 12.1403 12.1403 15.4955 8 15.5ZM8 2C4.68629 2 2 4.68629 2 8C2 11.3137 4.68629 14 8 14C11.3137 14 14 11.3137 14 8C13.9963 4.68783 11.3122 2.00372 8 2ZM11.75 8.75H7.25V4.25H8.75V7.25H11.75V8.75Z" fill="white" />
  </symbol>
  <symbol id="mail" width="18" height="18" viewBox="0 0 18 18" fill="none" xmlns="http://www.w3.org/2000/svg">
    <path d="M15 15H3C2.17157 15 1.5 14.3284 1.5 13.5V4.43475C1.53496 3.63191 2.1964 2.99924 3 3H15C15.8284 3 16.5 3.67157 16.5 4.5V13.5C16.5 14.3284 15.8284 15 15 15ZM3 5.901V13.5H15V5.901L9 9.9L3 5.901ZM3.6 4.5L9 8.1L14.4 4.5H3.6Z" fill="white" />
  </symbol>
  <symbol id="protected" width="61" height="61" viewBox="0 0 61 61" fill="none" xmlns="http://www.w3.org/2000/svg">
    <path d="M9.94922 0.118835C8.79355 0.404774 7.70937 1.28642 7.18516 2.37059C6.8873 2.97821 6.86348 3.18075 6.81582 4.78915L6.76816 6.5286L5.13594 6.57626C3.64668 6.612 3.46797 6.64774 2.88418 6.94559C2.0502 7.38641 1.35918 8.10126 0.966016 8.92333L0.65625 9.59052V33.7761V57.9616L0.989844 58.6288C1.37109 59.427 2.27656 60.3087 3.06289 60.678L3.63477 60.9401L26.0332 60.9759C51.4221 61.0116 48.801 61.1188 50.6357 59.9155C54.9367 57.08 58.7611 50.9681 60.0002 44.9515C60.3695 43.1763 60.4648 40.2097 60.1908 39.4114C59.893 38.5774 59.2734 38.1604 54.3053 35.4798C51.6604 34.0501 49.4682 32.8825 49.4205 32.8825C49.3609 32.8825 49.3252 28.0216 49.3252 22.0884C49.3252 15.071 49.2775 11.2227 49.2061 11.0798C49.1107 10.8891 42.5103 5.20614 37.4945 0.97665L36.3389 -0.000305176L23.3168 0.0116081C16.1684 0.0235252 10.1518 0.0592651 9.94922 0.118835ZM34.6709 5.28954C34.6709 6.88602 34.7305 8.48251 34.79 8.82801C35.076 10.353 36.1244 11.7231 37.5064 12.3665L38.1855 12.6882L42.5342 12.7477L46.8828 12.8073V22.8032V32.811L42.0934 35.3964C39.4604 36.8261 37.1133 38.1366 36.875 38.3153C36.1482 38.8753 35.9338 39.4114 35.8861 40.9602C35.7789 44.0341 36.6725 47.7155 38.3166 51.0157L38.8408 52.0641H32.991H27.1412L26.7361 52.4692C26.474 52.7313 26.3311 52.9934 26.3311 53.1841C26.3311 53.6011 26.6289 54.1729 26.9148 54.3278C27.0697 54.3993 29.4406 54.447 33.7059 54.447H40.2586L41.0807 55.555C41.5453 56.1626 42.3436 57.0919 42.8797 57.6399L43.8447 58.6169L23.984 58.5931L4.11133 58.5573L3.74199 58.2952C2.91992 57.6995 2.97949 59.7368 2.97949 33.7522C2.97949 11.6636 2.99141 10.2815 3.19395 9.88837C3.30117 9.662 3.5752 9.35223 3.80156 9.20927C4.15898 8.97099 4.34961 8.93524 5.49336 8.93524H6.79199L6.81582 30.1661L6.85156 51.4089L7.18516 52.088C7.60215 52.9458 8.34082 53.6845 9.1748 54.0776L9.83008 54.3874L13.5592 54.4231L17.2883 54.4589L17.6338 54.1015C18.1818 53.5534 18.1104 52.636 17.4789 52.2786C17.2883 52.1714 16.2398 52.1118 13.7379 52.0641C10.4615 52.0046 10.2471 51.9927 9.92539 51.7544C9.74668 51.6233 9.49648 51.3255 9.37734 51.0991C9.18672 50.7179 9.1748 49.3835 9.19863 27.1042L9.23438 3.51434L9.49648 3.14501C10.0684 2.34676 9.27012 2.38251 22.6139 2.38251H34.6709V5.28954ZM41.1879 7.26727L44.7502 10.3054L41.8312 10.3411C39.0553 10.3649 38.9004 10.353 38.3881 10.1147C38.0426 9.93602 37.7447 9.67391 37.5184 9.31649L37.1729 8.76844V6.33797C37.1729 3.95516 37.1729 3.90751 37.3992 4.06239C37.5303 4.1577 39.234 5.5993 41.1879 7.26727ZM52.959 37.4813C55.5801 38.8872 57.7961 40.1382 57.8795 40.2454C58.2965 40.7815 57.8199 44.4034 57.0098 46.8815C55.4371 51.6948 52.1727 56.2102 48.8129 58.2356L48.1576 58.6288L47.6811 58.3905C45.7152 57.3897 43.2014 54.721 41.4977 51.8497C39.4842 48.4423 38.4357 45.1897 38.2809 41.8538L38.2094 40.2811L38.674 40.0071C39.5914 39.4591 47.9551 34.9317 48.0742 34.9198C48.1457 34.9198 50.3379 36.0636 52.959 37.4813Z" fill="#A752EA" />
    <path d="M14.6919 9.75762C14.0248 10.1746 13.9414 11.0682 14.5371 11.5805L14.8945 11.9141H22.6505C27.7378 11.9141 30.4781 11.8664 30.633 11.7949C31.2644 11.4494 31.3597 10.4129 30.7878 9.87676L30.4781 9.59082L22.7816 9.55508C15.3353 9.53125 15.0613 9.53125 14.6919 9.75762Z" fill="#A752EA" />
    <path d="M14.4992 15.9053C13.9154 16.489 14.0583 17.4183 14.7732 17.7758C15.1664 17.9783 16.048 17.9902 28.0335 17.9902C41.7824 17.9902 41.4964 18.0021 41.8062 17.4183C42.0445 16.9656 41.9611 16.2984 41.6156 15.941L41.2939 15.6074H28.0455H14.8089L14.4992 15.9053Z" fill="#A752EA" />
    <path d="M14.6652 21.7549C14.5104 21.8621 14.3197 22.1361 14.2244 22.3506C14.0814 22.6961 14.0814 22.8152 14.2244 23.1607C14.5699 23.9709 14.4389 23.959 19.8359 23.9232L24.685 23.8875L24.9709 23.5539C25.3879 23.0654 25.3641 22.3744 24.9113 21.9097L24.5658 21.5642H19.7525C15.4992 21.5642 14.9154 21.5881 14.6652 21.7549Z" fill="#A752EA" />
    <path d="M31.6809 21.9098C31.2282 22.3744 31.2043 23.0654 31.6213 23.5539L31.9073 23.8875L36.5776 23.9232L41.236 23.959L41.5815 23.6016C42.0819 23.1131 42.0819 22.4102 41.5934 21.9098L41.2479 21.5643H36.6372H32.0264L31.6809 21.9098Z" fill="#A752EA" />
    <path d="M14.6891 27.7598C14.0338 28.1529 13.9504 29.0465 14.4985 29.6064L14.8083 29.9043H28.0448H41.2932L41.6149 29.5707C41.9604 29.2133 42.0438 28.5461 41.8174 28.1053C41.4838 27.4977 41.9842 27.5215 28.0329 27.5215C15.3682 27.5215 15.0585 27.5334 14.6891 27.7598Z" fill="#A752EA" />
    <path d="M14.4985 33.8955C13.9504 34.4555 14.0338 35.349 14.6891 35.7422C15.0108 35.9447 15.2848 35.9805 16.4762 35.9805C18.0608 35.9805 18.454 35.8494 18.7756 35.2418C18.9305 34.932 18.9424 34.7891 18.8352 34.4197C18.6208 33.693 18.3467 33.5977 16.4643 33.5977C14.844 33.5977 14.7963 33.6096 14.4985 33.8955Z" fill="#A752EA" />
    <path d="M22.8652 33.9426C22.3887 34.4192 22.3887 35.003 22.8652 35.5272L23.2107 35.9204L28.4648 35.9561C34.267 35.9919 34.2312 35.9919 34.6244 35.2413C34.7793 34.9315 34.7912 34.7885 34.684 34.4192C34.4338 33.5733 34.6006 33.5971 28.5959 33.5971H23.2107L22.8652 33.9426Z" fill="#A752EA" />
    <path d="M14.6652 39.7448C14.5104 39.852 14.3197 40.1261 14.2244 40.3405C14.0814 40.686 14.0814 40.8052 14.2244 41.1507C14.5699 41.9847 14.0934 41.937 22.6596 41.937H30.3799L30.7611 41.5915C31.0828 41.3056 31.1543 41.1626 31.1543 40.7456C31.1543 40.3286 31.0828 40.1856 30.7611 39.8997L30.3799 39.5542H22.6596C15.7256 39.5542 14.9154 39.578 14.6652 39.7448Z" fill="#A752EA" />
    <path d="M21.4564 52.3742C20.5747 53.1129 21.0513 54.4354 22.195 54.4473C23.3984 54.4473 23.8154 52.7912 22.755 52.2432C22.2546 51.9811 21.8734 52.0168 21.4564 52.3742Z" fill="#A752EA" />
    <path d="M51.2324 42.5929C51.0656 42.6882 50.0053 43.7247 48.8734 44.9161L46.8004 47.0607L45.8949 46.2267C45.3945 45.762 44.8584 45.357 44.7154 45.3212C44.0006 45.1425 43.25 45.7025 43.25 46.4054C43.25 46.6437 43.2977 46.9296 43.3691 47.0488C43.4287 47.1679 44.1197 47.8589 44.9061 48.5976C47.0029 50.5396 46.6574 50.6349 50.041 47.1679C51.5184 45.6548 52.7812 44.2966 52.8646 44.1536C53.4484 43.1409 52.2689 42.0091 51.2324 42.5929Z" fill="#A752EA" />
  </symbol>
  <symbol id="slider-arrow" width="27" height="16" viewBox="0 0 27 16" fill="none" xmlns="http://www.w3.org/2000/svg">
    <path d="M0.292892 7.29289C-0.0976315 7.68342 -0.0976315 8.31658 0.292892 8.70711L6.65685 15.0711C7.04738 15.4616 7.68054 15.4616 8.07107 15.0711C8.46159 14.6805 8.46159 14.0474 8.07107 13.6569L2.41421 8L8.07107 2.34315C8.46159 1.95262 8.46159 1.31946 8.07107 0.928932C7.68054 0.538408 7.04738 0.538408 6.65685 0.928932L0.292892 7.29289ZM27 8V7L1 7V8V9L27 9V8Z" fill="#5D5FEF" />
  </symbol>
  <symbol id="auction" width="61" height="61" viewBox="0 0 61 61" fill="none" xmlns="http://www.w3.org/2000/svg">
    <g clip-path="url(#clip0_1056_7479)">
      <path d="M23.7328 0.189869C22.4223 0.535378 21.2309 1.55999 20.6352 2.83479C20.3492 3.4305 20.3135 3.66878 20.3016 4.81253L20.2896 6.09925L13.177 13.2119L6.07617 20.3127H4.80137C3.65762 20.3127 3.44316 20.3485 2.83555 20.6344C2.0373 21.0037 1.08418 21.8616 0.655273 22.5764C0.285937 23.2078 0 24.292 0 25.0307C0 25.7694 0.38125 26.9846 0.82207 27.6399C1.02461 27.9377 3.63379 30.6184 6.63613 33.6088C12.5693 39.5182 12.6289 39.5659 14.142 39.7684C15.81 39.9828 17.2635 39.4586 18.3834 38.2434C19.3127 37.2426 19.5867 36.5039 19.5867 34.9432L19.5986 33.728L20.242 33.0727L20.8973 32.4174L21.0879 32.7391C21.4334 33.2991 22.3865 34.0496 23.018 34.2641C24.0545 34.6096 25.4604 34.3594 26.3896 33.6684C26.616 33.5016 27.1402 34.0735 37.6961 46.202C43.7842 53.1955 49.0383 59.1407 49.3719 59.4028C52.2193 61.7022 56.2463 61.4758 58.8555 58.8547C61.6434 56.0668 61.7148 51.8016 58.9984 48.978C58.5576 48.5252 54.9834 45.3442 51.0518 41.9248C32.8352 26.0791 33.4785 26.651 33.6691 26.3889C34.3959 25.3762 34.6223 24.1014 34.2648 23.0172C34.0504 22.3858 33.2998 21.4326 32.7398 21.0871L32.4182 20.8965L33.0734 20.2412L33.7287 19.5979H34.8844C36.4094 19.5979 37.2791 19.2881 38.2561 18.3707C39.8287 16.9172 40.2576 14.7131 39.3641 12.7711C39.09 12.1873 38.2561 11.2938 33.4309 6.46858C29.5111 2.54885 27.6525 0.773659 27.2832 0.583035C26.1037 -0.00075531 24.9123 -0.131809 23.7328 0.189869ZM25.9131 2.60843C26.2348 2.76331 28.1768 4.63382 31.8344 8.29144C37.0408 13.5336 37.2672 13.7838 37.3863 14.3319C37.7557 16.1428 36.2068 17.6201 34.4197 17.1555C33.9432 17.0364 33.3475 16.4764 28.4984 11.6393C25.5318 8.67268 22.9941 6.05159 22.8631 5.81331C22.732 5.53928 22.6367 5.13421 22.6367 4.76487C22.6367 3.03733 24.3762 1.89358 25.9131 2.60843ZM26.7471 13.2239L31.751 18.2278L24.9838 24.983L18.2285 31.7502L13.2246 26.7463C10.4725 23.9942 8.2207 21.6948 8.2207 21.6233C8.2207 21.4684 21.4691 8.21995 21.624 8.21995C21.6955 8.21995 23.9949 10.4717 26.7471 13.2239ZM5.81406 22.8623C6.05234 22.9934 8.67344 25.5311 11.64 28.4977C16.4771 33.3467 17.0371 33.9424 17.1562 34.419C17.6209 36.2061 16.1436 37.7549 14.3326 37.3856C13.7846 37.2664 13.5344 37.0401 8.29219 31.8336C4.63457 28.176 2.76406 26.234 2.60918 25.9123C2.07305 24.7686 2.56152 23.47 3.75293 22.8385C4.25332 22.5645 5.26602 22.5883 5.81406 22.8623ZM31.7033 23.3389C31.9654 23.601 32.0488 23.8035 32.0488 24.1491C32.0488 24.578 31.9059 24.7448 28.3197 28.319C24.7455 31.9051 24.5787 32.0481 24.1498 32.0481C23.4826 32.0481 22.9941 31.5358 22.9941 30.8328V30.3205L26.6637 26.6629L30.3213 22.9934H30.8336C31.2506 22.9934 31.4293 23.0649 31.7033 23.3389ZM35.9447 31.9289C38.1607 33.859 41.4371 36.7184 43.2361 38.291L46.4887 41.1385L43.8318 43.7953C42.3664 45.2608 41.1273 46.4522 41.0916 46.4403C41.0559 46.4164 38.4586 43.4498 35.3252 39.8518C32.1918 36.2418 29.3324 32.9655 28.975 32.5485L28.3078 31.7979L30.0354 30.0703C30.9766 29.1291 31.7867 28.3666 31.8344 28.3785C31.882 28.4024 33.7287 29.9989 35.9447 31.9289ZM49.2646 43.5451L50.0986 44.3076L47.1797 47.2266L44.2607 50.1455L43.4982 49.252L42.7357 48.3465L45.5236 45.5586C47.0605 44.0217 48.3354 42.7707 48.3711 42.7707C48.4068 42.7826 48.8119 43.1282 49.2646 43.5451ZM54.8047 48.3823C56.282 49.6809 57.6045 50.92 57.7475 51.1344C58.3789 52.0875 58.5576 52.6594 58.5576 53.8508C58.5576 54.8278 58.51 55.078 58.2479 55.6379C57.116 58.0446 54.5902 59.1645 52.1836 58.3186C51.2662 57.9969 50.6109 57.4012 48.4902 54.9588C47.3584 53.6602 46.2861 52.445 46.1193 52.2662L45.8215 51.9326L48.8477 48.9065C50.5156 47.2385 51.9334 45.916 51.993 45.9637C52.0645 45.9994 53.3273 47.0955 54.8047 48.3823Z" fill="#5D5FEF" />
      <path d="M20.7798 12.378C19.922 13.0095 15.5138 17.5606 15.4304 17.9061C15.204 18.8116 15.9784 19.586 16.8958 19.3597C17.0983 19.312 18.2063 18.2993 19.9935 16.5241C22.7456 13.772 22.7575 13.7481 22.7575 13.2358C22.7575 12.8307 22.686 12.652 22.412 12.378C21.9474 11.9134 21.3993 11.9134 20.7798 12.378Z" fill="#5D5FEF" />
      <path d="M12.901 20.4564C12.484 20.5398 12.0312 21.1594 12.0312 21.6479C12.0312 22.2436 12.5674 22.7559 13.1869 22.7559C13.7707 22.7559 14.1162 22.5057 14.2949 21.9934C14.4855 21.4096 14.2115 20.7781 13.6516 20.5518C13.4133 20.4564 13.2107 20.385 13.1988 20.385C13.175 20.3969 13.0439 20.4326 12.901 20.4564Z" fill="#5D5FEF" />
      <path d="M5.39815 46.8696C4.18291 47.2628 3.30127 48.0253 2.75323 49.2048C2.49112 49.7528 2.44346 50.0268 2.44346 50.8727C2.44346 51.7663 2.49112 51.9807 2.80088 52.6241L3.1583 53.3509L2.65791 53.6725C1.49033 54.3993 0.429983 55.972 0.132131 57.4016C-0.0465797 58.2356 -0.0346656 59.9512 0.144045 60.3444C0.453811 61.0354 -0.42783 60.9997 16.6808 60.9997C33.7894 60.9997 32.9077 61.0354 33.2175 60.3444C33.3962 59.9512 33.4081 58.2356 33.2294 57.4016C32.9315 55.972 31.8712 54.3993 30.7036 53.6725L30.2032 53.3509L30.5606 52.6241C30.8704 51.9807 30.9181 51.7663 30.9181 50.8727C30.9181 49.9673 30.8823 49.7647 30.5249 49.0618C30.0722 48.1444 29.4288 47.513 28.4876 47.0721L27.8204 46.7624L16.8595 46.7386C8.03115 46.7266 5.80322 46.7505 5.39815 46.8696ZM27.6417 49.3239C28.1778 49.5979 28.5948 50.277 28.5948 50.8846C28.5948 51.4208 28.1659 52.1118 27.6417 52.4096C27.189 52.6598 27.1651 52.6598 16.6808 52.6598C6.19639 52.6598 6.17256 52.6598 5.71983 52.4096C4.50459 51.7305 4.48076 50.0864 5.67217 49.3716L6.13682 49.0856H16.6569C26.9626 49.0856 27.189 49.0856 27.6417 49.3239ZM28.9761 55.4358C30.0364 55.96 30.7394 56.9132 30.93 58.1165L31.0134 58.6169H16.6927C2.94385 58.6169 2.38389 58.605 2.38389 58.4024C2.38389 57.9616 2.75322 56.9727 3.08682 56.5081C3.52764 55.9124 4.05186 55.5192 4.82627 55.2571C5.37432 55.0665 6.24404 55.0546 16.8595 55.0784L28.297 55.1022L28.9761 55.4358Z" fill="#5D5FEF" />
    </g>
    <defs>
      <clipPath id="clip0_1056_7479">
        <rect width="61" height="61" fill="white" />
      </clipPath>
    </defs>
  </symbol>
  <symbol id="legal-document" width="61" height="61" viewBox="0 0 61 61" fill="none" xmlns="http://www.w3.org/2000/svg">
    <g clip-path="url(#clip0_1056_7485)">
      <path d="M1.25115 0.166798C0.750757 0.381252 0.14314 1.10801 0.0597412 1.57266C0.023999 1.78711 0.012085 13.4748 0.023999 27.5334L0.0597412 53.101L0.405249 53.5418C0.869897 54.1613 1.53708 54.4473 2.53787 54.4473H3.33611V55.2217C3.33611 56.0676 3.55056 56.7229 3.96755 57.1637C4.39646 57.6164 4.64666 57.7117 5.71892 57.7832L6.73162 57.8428L6.79119 58.7959C6.86267 59.9277 7.11287 60.3686 7.89919 60.7498C8.4115 61 8.45916 61 22.7679 61H37.1125L41.4849 56.6156L45.8693 52.2432V48.9311V45.6309H46.9177C47.7875 45.6309 48.0138 45.5951 48.1687 45.4164C48.4547 45.0947 48.4308 44.4037 48.1211 44.1297C47.8828 43.9152 47.5849 43.9033 42.2117 43.8676L36.5644 43.8318L36.6359 43.5697C36.767 43.1289 37.3388 42.4975 37.9465 42.1162L38.5183 41.7588H45.0353H51.5523L52.1361 42.1162C52.6365 42.426 53.4943 43.4387 53.4943 43.7246C53.4943 43.7723 53.1488 43.8438 52.7318 43.8676C51.7787 43.9271 51.4689 44.1535 51.4689 44.7969C51.4689 45.5355 51.6834 45.6309 53.399 45.6309C55.2695 45.6309 55.4363 45.5355 55.4125 44.5467C55.3767 42.7357 54.3045 41.175 52.5531 40.341C51.7787 39.9836 51.731 39.9717 49.7176 39.9359L47.6564 39.8883V30.0711V20.2539H50.9924C52.8271 20.2539 54.3283 20.2777 54.3283 20.3016C54.3283 20.3254 53.4228 22.8512 52.3029 25.9131C50.0988 31.9773 50.0869 32.0131 50.5039 33.3475C51.4332 36.3379 54.65 37.851 57.6642 36.7072C59.3679 36.052 60.7261 34.2529 60.9525 32.3467C61.0359 31.7152 60.9525 31.477 58.7246 25.3531C57.2234 21.207 56.3299 18.9076 56.1511 18.7289C55.901 18.4787 55.8176 18.4668 53.5658 18.4668H51.2545L51.1711 17.9783C51.1234 17.7162 50.8732 17.0729 50.623 16.5486C49.7295 14.7854 48.2045 13.6178 46.2029 13.177L45.8812 13.1055L45.8455 10.5082L45.8097 7.89902L45.4642 7.4582C44.9996 6.83867 44.3324 6.55273 43.3554 6.55273H42.5691L42.5095 5.67109C42.4023 4.09844 41.747 3.45508 40.1386 3.35977L39.1974 3.3002V2.85938C39.1974 2.10879 38.9711 1.19141 38.709 0.810158C38.566 0.607616 38.2324 0.345509 37.9584 0.226368C37.4937 0.0119133 36.7789 0 19.5392 0.0119133C4.98025 0.0119133 1.53708 0.0357437 1.25115 0.166798ZM37.2912 2.01348C37.3508 2.14453 37.4103 2.49004 37.4103 2.78789V3.33594L21.1119 3.35977L4.82537 3.39551L4.38455 3.66953C4.14626 3.82441 3.82458 4.1461 3.6697 4.38438L3.39568 4.8252V9.97207C3.39568 15.6193 3.37185 15.4049 4.11052 15.5598C4.37263 15.6074 4.56326 15.5598 4.80154 15.3691L5.12322 15.1189V10.258C5.12322 6.64805 5.15896 5.37324 5.26619 5.26602C5.46873 5.06348 40.4008 5.06348 40.6033 5.26602C40.6867 5.34941 40.7463 5.67109 40.7463 5.98086V6.55273L24.4478 6.57656L8.14939 6.6123L7.66091 6.93399C6.70779 7.56543 6.79119 5.20645 6.79119 32.0369V56.008L5.99294 55.9723L5.18279 55.9365L5.12322 37.3148C5.06365 19.0506 5.06365 18.6813 4.83728 18.5145C4.44412 18.2404 3.86033 18.3 3.5863 18.6574L3.33611 18.9791V35.8256V52.6721L2.59744 52.6363L1.84685 52.6006L1.81111 27.3428C1.79919 13.451 1.81111 2.01348 1.84685 1.93008C1.88259 1.82285 5.54021 1.78711 19.5273 1.78711C36.8385 1.78711 37.1601 1.78711 37.2912 2.01348ZM44.0584 10.7465L44.0822 13.0816L43.4031 13.2842C41.2228 13.9156 39.5429 15.5955 38.9949 17.6805L38.7804 18.4668H36.4929C34.2888 18.4668 34.1935 18.4787 33.9076 18.7289C33.5263 19.0863 29.0705 31.2982 29.0705 32.0012C29.0824 34.3721 31.1316 36.6477 33.6336 37.0527C36.5883 37.5174 39.531 35.2537 39.7455 32.3348L39.8051 31.5127L37.8511 26.1514C36.7789 23.1967 35.8615 20.6709 35.8138 20.516L35.7304 20.2539H39.0664H42.4142V30.083V39.9121H40.5676C39.0068 39.9121 38.6017 39.9479 37.9822 40.1623C36.207 40.758 34.9679 42.2115 34.6701 44.0463C34.551 44.785 34.5986 45.0947 34.8845 45.4164C35.0513 45.6189 35.4326 45.6309 39.5787 45.6309H44.0822V48.252V50.873H40.9607C39.1736 50.873 37.6367 50.9326 37.3865 50.9922C36.8146 51.159 36.2308 51.6475 36.0283 52.1479C35.8972 52.4457 35.8615 53.3273 35.8615 55.877V59.2129L22.2556 59.1891L8.63787 59.1533L8.60212 33.8955C8.59021 20.0037 8.60212 8.56621 8.63787 8.48281C8.67361 8.36367 12.2836 8.33984 26.3541 8.36367L44.0226 8.39941L44.0584 10.7465ZM46.9773 15.3096C48.0734 15.8576 49.0146 16.9775 49.384 18.1928L49.4554 18.4668H45.0472C41.5922 18.4668 40.6271 18.4311 40.6271 18.3119C40.6271 18.0617 41.2109 16.9061 41.5326 16.5129C42.0211 15.941 42.9742 15.2738 43.5818 15.0713C43.9511 14.9521 44.4992 14.9045 45.214 14.9283C46.1076 14.9641 46.3935 15.0236 46.9773 15.3096ZM45.8693 30.083V39.9121H45.0353H44.2013V30.083V20.2539H45.0353H45.8693V30.083ZM36.064 26.485L37.6248 30.7979L36.0283 30.8336C35.1467 30.8455 33.717 30.8455 32.8353 30.8336L31.2508 30.7979L32.8115 26.485C33.6693 24.1021 34.3961 22.1602 34.4318 22.1602C34.4676 22.1602 35.1943 24.1021 36.064 26.485ZM57.2949 26.6279L58.808 30.7979L55.6627 30.8336C53.9232 30.8455 52.4935 30.8455 52.4697 30.8217C52.4459 30.7979 53.1369 28.8439 54.0066 26.4611C55.0551 23.5898 55.615 22.1959 55.6865 22.3031C55.7342 22.3984 56.4609 24.3404 57.2949 26.6279ZM37.8154 32.9066C37.3984 34.3006 35.9568 35.3133 34.4318 35.3133C33.574 35.3133 32.609 34.9439 32.0371 34.4078C31.6558 34.0623 31.1554 33.2879 31.0363 32.9066L30.9648 32.6445H34.4318H37.8988L37.8154 32.9066ZM59.0939 32.6922C59.0939 32.9424 58.6174 33.7406 58.1884 34.1934C56.8898 35.5754 54.8883 35.6945 53.2918 34.4793C52.9105 34.1814 52.1838 33.0854 52.1838 32.7875C52.1838 32.6803 52.9582 32.6445 55.6388 32.6445C57.5451 32.6445 59.0939 32.6684 59.0939 32.6922ZM40.2578 55.2574L37.7082 57.8547L37.6724 55.3527C37.6486 53.4346 37.6843 52.8389 37.7916 52.7555C37.875 52.7078 39.0426 52.6602 40.3769 52.6602H42.7955L40.2578 55.2574Z" fill="#EF5DA8" />
      <path d="M13.8338 16.3936C13.5479 16.763 13.5241 16.9059 13.7266 17.3348C13.81 17.5255 14.0126 17.6803 14.2866 17.7637C14.5725 17.8352 17.3128 17.871 22.3762 17.8471L30.0489 17.8114L30.2753 17.5255C30.5731 17.168 30.5612 16.62 30.2633 16.3221C30.0251 16.0839 29.8702 16.0839 22.0546 16.0839H14.0721L13.8338 16.3936Z" fill="#EF5DA8" />
      <path d="M13.8196 23.316C13.5098 23.7091 13.5694 24.2572 13.9507 24.5789C14.1889 24.7695 14.6298 24.7814 20.7417 24.7576C27.902 24.7218 27.5565 24.7576 27.7114 24.007C27.7591 23.7449 27.7114 23.5543 27.5208 23.316L27.2706 22.9943H20.6702H14.0698L13.8196 23.316Z" fill="#EF5DA8" />
      <path d="M13.9264 30.1307C13.7238 30.2855 13.6523 30.4762 13.6523 30.7979C13.6523 31.1195 13.7238 31.3102 13.9264 31.465C14.1885 31.6795 14.5102 31.6914 19.657 31.6914C24.8039 31.6914 25.1256 31.6795 25.3877 31.465C25.7332 31.191 25.757 30.5 25.4354 30.1426C25.2209 29.9043 25.1137 29.9043 19.7166 29.9043C14.5102 29.9043 14.1885 29.9162 13.9264 30.1307Z" fill="#EF5DA8" />
      <path d="M13.9507 37.017C13.5694 37.3387 13.5098 37.8867 13.8196 38.2799L14.0698 38.6016H19.729C25.2214 38.6016 25.3882 38.5896 25.6145 38.3633C25.7575 38.2203 25.8528 37.9701 25.8528 37.708C25.8528 37.4459 25.7575 37.1957 25.6145 37.0527C25.3882 36.8264 25.2214 36.8145 19.7886 36.8145C14.6417 36.8145 14.1889 36.8264 13.9507 37.017Z" fill="#EF5DA8" />
      <path d="M14.1765 43.8552C13.7952 44.0101 13.6999 44.165 13.6999 44.6892C13.6999 45.5589 13.2234 45.5113 21.9564 45.5113C28.8904 45.5113 29.7839 45.4874 29.9507 45.3206C30.4154 44.8679 30.2843 44.0577 29.7124 43.8433C29.3073 43.6884 14.5816 43.7003 14.1765 43.8552Z" fill="#EF5DA8" />
      <path d="M13.9036 50.9683C13.5819 51.3257 13.6415 52.0048 14.0227 52.3027C14.3325 52.541 14.3682 52.5529 21.9575 52.5171L29.5706 52.4814L29.7969 52.1955C30.071 51.8619 30.0829 51.3734 29.8327 51.016L29.654 50.7539H21.8741C14.4874 50.7539 14.0823 50.7658 13.9036 50.9683Z" fill="#EF5DA8" />
    </g>
    <defs>
      <clipPath id="clip0_1056_7485">
        <rect width="61" height="61" fill="white" />
      </clipPath>
    </defs>
  </symbol>
  <symbol id="facebook" viewBox="0 0 7 14">
    <path d="M1.78694 14V7.43079H0V5.06556H1.78694V3.04535C1.78694 1.45785 2.84249 0 5.27471 0C6.25947 0 6.98766 0.09177 6.98766 0.09177L6.93028 2.30049C6.93028 2.30049 6.18765 2.29347 5.37725 2.29347C4.50015 2.29347 4.35963 2.68638 4.35963 3.33851V5.06556H7L6.88512 7.43079H4.35963V14H1.78694Z" fill="white" />
  </symbol>
  <symbol id="twitter" viewBox="0 0 18 14">
    <path d="M18 1.70441C17.326 1.98888 16.611 2.17561 15.879 2.25838C16.6415 1.82297 17.227 1.13349 17.5027 0.311979C16.7778 0.721787 15.9847 1.01052 15.1577 1.16571C14.484 0.481989 13.5243 0.0546875 12.4621 0.0546875C10.4226 0.0546875 8.76909 1.62992 8.76909 3.57277C8.76909 3.84855 8.80179 4.11703 8.86472 4.37459C5.79558 4.22782 3.07448 2.82722 1.25304 0.698687C0.935227 1.21829 0.753117 1.82271 0.753117 2.46738C0.753117 3.68799 1.40513 4.76478 2.39597 5.39572C1.80953 5.37822 1.23599 5.22732 0.723234 4.95562C0.723023 4.97036 0.723023 4.9851 0.723023 4.9999C0.723023 6.70448 1.99596 8.12645 3.68529 8.44966C3.14148 8.59056 2.57107 8.61118 2.01762 8.50995C2.48752 9.90767 3.85137 10.9248 5.46729 10.9532C4.20342 11.8968 2.61105 12.4593 0.880945 12.4593C0.58282 12.4593 0.288914 12.4426 0 12.4101C1.63427 13.4083 3.57539 13.9908 5.66086 13.9908C12.4535 13.9908 16.1679 8.62985 16.1679 3.98078C16.1679 3.82819 16.1644 3.67647 16.1573 3.52561C16.8802 3.0277 17.5042 2.41098 18 1.70441Z" fill="white" />
  </symbol>
  <symbol id="linkedin" viewBox="0 0 16 15" >
    <path d="M3.63269 15V4.87953H0.202386V15H3.63269ZM1.91798 3.49692C3.11419 3.49692 3.85877 2.71978 3.85877 1.74862C3.83648 0.755565 3.11423 0 1.94068 0C0.767312 0 0 0.75558 0 1.74862C0 2.71983 0.744398 3.49692 1.89559 3.49692H1.91787H1.91798ZM5.53135 15H8.96165V9.34824C8.96165 9.04576 8.98394 8.7436 9.07452 8.52738C9.32251 7.92304 9.88693 7.29712 10.8345 7.29712C12.0758 7.29712 12.5724 8.2252 12.5724 9.5857V14.9999H16.0025V9.19695C16.0025 6.08834 14.3101 4.64193 12.0532 4.64193C10.2027 4.64193 9.39021 5.65626 8.93883 6.34712H8.96173V4.87932H5.53143C5.57644 5.82897 5.53143 14.9998 5.53143 14.9998L5.53135 15Z" fill="white" />
  </symbol>
  <symbol id="modal-arrow" width="10" height="18" viewBox="0 0 10 18" fill="none" xmlns="http://www.w3.org/2000/svg">
    <path d="M9.24316 1.92871L2.17187 9L2.52539 9.35352L9.24316 16.0693L8.53613 16.7773L0.75781 8.99902L8.53613 1.22071L9.24316 1.92871Z" fill="black" stroke="#5D5FEF" />
  </symbol>
  <symbol id="modal-close" width="16" height="16" viewBox="0 0 16 16" fill="none" xmlns="http://www.w3.org/2000/svg">
    <path d="M13.82 2.18164L2.18359 13.818" stroke="#DB3E3F" stroke-width="2" stroke-linecap="square" stroke-linejoin="round" />
    <path d="M2.18004 2.18164L13.8164 13.818" stroke="#DB3E3F" stroke-width="2" stroke-linecap="square" stroke-linejoin="round" />
  </symbol>
</svg>

